<mxfile host="65bd71144e">
    <diagram id="NiKIDFGNXAxcevR2oUuQ" name="Page-1">
        <mxGraphModel dx="1413" dy="865" grid="1" gridSize="10" guides="1" tooltips="1" connect="1" arrows="1" fold="1" page="1" pageScale="1" pageWidth="850" pageHeight="1100" math="0" shadow="0">
            <root>
                <mxCell id="0"/>
                <mxCell id="1" parent="0"/>
                <mxCell id="2" value="Patent Application Management (App.js)" style="swimlane;startSize=20;horizontal=1;childLayout=treeLayout;horizontalTree=0;resizable=0;containerType=tree;fontSize=12;" vertex="1" parent="1">
                    <mxGeometry x="10" y="20" width="280" height="280" as="geometry"/>
                </mxCell>
                <mxCell id="3" value="State" style="whiteSpace=wrap;html=1;" vertex="1" parent="2">
                    <mxGeometry x="90" y="40" width="100" height="40" as="geometry"/>
                </mxCell>
                <mxCell id="4" value="username" style="whiteSpace=wrap;html=1;" vertex="1" parent="2">
                    <mxGeometry x="20" y="130" width="100" height="40" as="geometry"/>
                </mxCell>
                <mxCell id="5" value="" style="edgeStyle=elbowEdgeStyle;elbow=vertical;html=1;rounded=1;curved=0;sourcePerimeterSpacing=0;targetPerimeterSpacing=0;startSize=6;endSize=6;" edge="1" parent="2" source="3" target="4">
                    <mxGeometry relative="1" as="geometry"/>
                </mxCell>
                <mxCell id="6" value="password" style="whiteSpace=wrap;html=1;" vertex="1" parent="2">
                    <mxGeometry x="160" y="130" width="100" height="40" as="geometry"/>
                </mxCell>
                <mxCell id="7" value="" style="edgeStyle=elbowEdgeStyle;elbow=vertical;html=1;rounded=1;curved=0;sourcePerimeterSpacing=0;targetPerimeterSpacing=0;startSize=6;endSize=6;" edge="1" parent="2" source="3" target="6">
                    <mxGeometry relative="1" as="geometry"/>
                </mxCell>
                <mxCell id="8" value="" style="edgeStyle=elbowEdgeStyle;elbow=vertical;html=1;rounded=1;curved=0;sourcePerimeterSpacing=0;targetPerimeterSpacing=0;startSize=6;endSize=6;" edge="1" target="9" source="6" parent="2">
                    <mxGeometry relative="1" as="geometry">
                        <mxPoint x="400" y="130" as="sourcePoint"/>
                    </mxGeometry>
                </mxCell>
                <mxCell id="9" value="loading" style="whiteSpace=wrap;html=1;" vertex="1" parent="2">
                    <mxGeometry x="160" y="220" width="100" height="40" as="geometry"/>
                </mxCell>
                <mxCell id="10" value="" style="edgeStyle=elbowEdgeStyle;elbow=vertical;html=1;rounded=1;curved=0;sourcePerimeterSpacing=0;targetPerimeterSpacing=0;startSize=6;endSize=6;" edge="1" target="11" source="4" parent="2">
                    <mxGeometry relative="1" as="geometry">
                        <mxPoint x="400" y="130" as="sourcePoint"/>
                    </mxGeometry>
                </mxCell>
                <mxCell id="11" value="user" style="whiteSpace=wrap;html=1;" vertex="1" parent="2">
                    <mxGeometry x="20" y="220" width="100" height="40" as="geometry"/>
                </mxCell>
                <mxCell id="12" value="Patent Application Management (App.js)" style="swimlane;startSize=10;horizontal=1;childLayout=treeLayout;horizontalTree=0;resizable=0;containerType=tree;fontSize=12;fillColor=rgb(24, 20, 29);" vertex="1" parent="1">
                    <mxGeometry x="400" y="25" width="406" height="270" as="geometry"/>
                </mxCell>
                <mxCell id="13" value="Functions" style="whiteSpace=wrap;html=1;" vertex="1" parent="12">
                    <mxGeometry x="188" y="30" width="100" height="40" as="geometry"/>
                </mxCell>
                <mxCell id="14" value="register" style="whiteSpace=wrap;html=1;" vertex="1" parent="12">
                    <mxGeometry x="90" y="120" width="100" height="40" as="geometry"/>
                </mxCell>
                <mxCell id="15" value="" style="edgeStyle=elbowEdgeStyle;elbow=vertical;html=1;rounded=1;curved=0;sourcePerimeterSpacing=0;targetPerimeterSpacing=0;startSize=6;endSize=6;" edge="1" parent="12" source="13" target="14">
                    <mxGeometry relative="1" as="geometry"/>
                </mxCell>
                <mxCell id="16" value="login" style="whiteSpace=wrap;html=1;" vertex="1" parent="12">
                    <mxGeometry x="286" y="120" width="100" height="40" as="geometry"/>
                </mxCell>
                <mxCell id="17" value="" style="edgeStyle=elbowEdgeStyle;elbow=vertical;html=1;rounded=1;curved=0;sourcePerimeterSpacing=0;targetPerimeterSpacing=0;startSize=6;endSize=6;" edge="1" parent="12" source="13" target="16">
                    <mxGeometry relative="1" as="geometry"/>
                </mxCell>
                <mxCell id="24" value="" style="edgeStyle=elbowEdgeStyle;elbow=vertical;html=1;rounded=1;curved=0;sourcePerimeterSpacing=0;targetPerimeterSpacing=0;startSize=6;endSize=6;" edge="1" target="25" source="14" parent="12">
                    <mxGeometry relative="1" as="geometry">
                        <mxPoint x="-45.19999999999999" y="100" as="sourcePoint"/>
                    </mxGeometry>
                </mxCell>
                <mxCell id="25" value="username" style="whiteSpace=wrap;html=1;" vertex="1" parent="12">
                    <mxGeometry x="20" y="210" width="100" height="40" as="geometry"/>
                </mxCell>
                <mxCell id="26" value="" style="edgeStyle=elbowEdgeStyle;elbow=vertical;html=1;rounded=1;curved=0;sourcePerimeterSpacing=0;targetPerimeterSpacing=0;startSize=6;endSize=6;" edge="1" target="27" source="14" parent="12">
                    <mxGeometry relative="1" as="geometry">
                        <mxPoint x="-115.19999999999999" y="190" as="sourcePoint"/>
                    </mxGeometry>
                </mxCell>
                <mxCell id="27" value="password" style="whiteSpace=wrap;html=1;" vertex="1" parent="12">
                    <mxGeometry x="160" y="210" width="100" height="40" as="geometry"/>
                </mxCell>
                <mxCell id="23" value="" style="edgeStyle=none;orthogonalLoop=1;jettySize=auto;html=1;endArrow=classic;startArrow=classic;endSize=8;startSize=8;" edge="1" parent="1">
                    <mxGeometry width="100" relative="1" as="geometry">
                        <mxPoint x="290" y="80" as="sourcePoint"/>
                        <mxPoint x="400" y="80" as="targetPoint"/>
                        <Array as="points"/>
                    </mxGeometry>
                </mxCell>
            </root>
        </mxGraphModel>
    </diagram>
</mxfile>